<svg width="334" height="80" viewBox="0 0 334 80" xmlns="http://www.w3.org/2000/svg">
  <!-- Wing/Arrow Design (Left Side) -->
  <g id="wing">
    <!-- Top wing segment -->
    <path d="M0,8 L45,0 L40,8 L0,12 Z" fill="#2B2B2B"/>
    <!-- Middle wing segments -->
    <path d="M0,14 L40,10 L35,18 L0,22 Z" fill="#2B2B2B"/>
    <path d="M0,24 L35,20 L30,28 L0,32 Z" fill="#2B2B2B"/>
    <path d="M0,34 L30,30 L25,38 L0,42 Z" fill="#2B2B2B"/>
  </g>
  
  <!-- Large Circle -->
  <circle cx="75" cy="40" r="38" fill="#2B2B2B" stroke="none"/>
  <circle cx="75" cy="40" r="30" fill="white"/>
  
  <!-- CAA Text with Blue Stripes -->
  <g id="caa-section">
    <!-- Background blue stripes for CAA -->
    <rect x="120" y="8" width="140" height="4" fill="#0066CC"/>
    <rect x="120" y="14" width="140" height="4" fill="#0066CC"/>
    <rect x="120" y="20" width="140" height="4" fill="#0066CC"/>
    <rect x="120" y="26" width="140" height="4" fill="#0066CC"/>
    <rect x="120" y="32" width="140" height="4" fill="#0066CC"/>
    <rect x="120" y="38" width="140" height="4" fill="#0066CC"/>
    <rect x="120" y="44" width="140" height="4" fill="#0066CC"/>
    <rect x="120" y="50" width="140" height="4" fill="#0066CC"/>
    <rect x="120" y="56" width="140" height="4" fill="#0066CC"/>
    <rect x="120" y="62" width="140" height="4" fill="#0066CC"/>
    
    <!-- C Letter (white spaces in stripes) -->
    <path d="M140,18 L140,50 L134,50 L134,18 Z" fill="white"/>
    <path d="M134,18 L152,18 L152,24 L134,24 Z" fill="white"/>
    <path d="M134,44 L152,44 L152,50 L134,50 Z" fill="white"/>
    
    <!-- A Letter (white spaces) -->
    <path d="M165,50 L165,24 L171,18 L177,24 L177,50 L171,50 L171,30 L165,30 Z" fill="white"/>
    <path d="M165,18 L177,18 L177,24 L165,24 Z" fill="white"/>
    
    <!-- A Letter Second (white spaces) -->
    <path d="M190,50 L190,24 L196,18 L202,24 L202,50 L196,50 L196,30 L190,30 Z" fill="white"/>
    <path d="M190,18 L202,18 L202,24 L190,24 Z" fill="white"/>
  </g>
  
  <!-- Right side white space -->
  <rect x="265" y="8" width="69" height="58" fill="white"/>
  <ellipse cx="300" cy="25" rx="18" ry="20" fill="#0066CC"/>
  <ellipse cx="300" cy="52" rx="18" ry="18" fill="#0066CC"/>
  
  <!-- UGANDA Text -->
  <text x="167" y="77" font-family="Arial, sans-serif" font-size="13" font-weight="bold" fill="#2B2B2B" letter-spacing="2">UGANDA</text>
</svg>
